{"title":"Shaft.(2000).h263.1080p[)(]Dts-5.1-(US).mkv","uid":13476979,"size":10434952632,"categoryP":"video","categoryS":"movies","magnet":"?xt=urn:btih:f9afd6f0e429e1811052c46b7ca3d09d27e5b7b9&amp;dn=Shaft.%282000%29.h263.1080p%5B%29%28%5DDts-5.1-%28US%29.mkv&amp;tr=udp%3A%2F%2Ftracker.leechers-paradise.org%3A6969&amp;tr=udp%3A%2F%2Fzer0day.ch%3A1337&amp;tr=udp%3A%2F%2Fopen.demonii.com%3A1337&amp;tr=udp%3A%2F%2Ftracker.coppersurfer.tk%3A6969&amp;tr=udp%3A%2F%2Fexodus.desync.com%3A6969","seeders":0,"leechers":0,"uploader":"Tyr3ll","files":1,"time":1455021278,"description":"Shaft.(2000).h263.1080p[)(]Dts-5.1-(US).mkv\r\n\r\nLanguage &amp; Sub : US English only\r\n\r\nSee imdb right here : \nhttp://www.imdb.com/title/tt0162650/\r\n\r\n 1h 39min | Action, Crime, Thriller\r\n\r\nDirector: John Singleton\r\nWriters: Ernest Tidyman (novel), John Singleton (story) \r\n\r\nStars: Samuel L. Jackson, Vanessa Williams, Christian Bale \r\n\r\nQuality : Normal but a bit grainy anyway.\r\n\r\nFinal size : 9,71 Go\r\n\r\n\r\nSee below for complete details :\r\n\r\n\r\n\r\nGeneral\r\nUnique ID                      : N/A\r\nComplete name                  : Shaft.(2000).h263.1080p[)(]Dts-5.1-(US).mkv\r\nFormat                         : Matroska\r\nFormat version                 : Version 4 / Version 2\r\nFile size                      : 9.72 GiB\r\nDuration                       : 1h 39mn\r\nOverall bit rate               : 14.0 Mbps\r\nEncoded date                   : UTC 2016-02-09 05:04:25 / UTC 2016-02-09 05:04:25\r\nWriting application            : Lavf57.23.101\r\nWriting library                : Lavf57.23.101 / Lavf57.23.101\r\n\r\nVideo\r\nID                             : 1\r\nFormat                         : H.263\r\nCodec ID                       : V_MS/VFW/FOURCC / H263\r\nDuration                       : 1h 39mn\r\nBit rate                       : 12.2 Mbps\r\nWidth                          : 1 920 pixels\r\nHeight                         : 808 pixels\r\nDisplay aspect ratio           : 2.40:1\r\nFrame rate mode                : Constant\r\nFrame rate                     : 23.976 fps\r\nBit depth                      : 8 bits\r\nCompression mode               : Lossy\r\nBits/(Pixel*Frame)             : 0.329\r\nStream size                    : 8.48 GiB (87%)\r\nWriting library                : Lavc57.24.100 h263p\r\nLanguage                       : English\r\nDefault                        : Yes\r\nForced                         : No\r\nDURATION                       : 01:39:18.963000000\r\n\r\nAudio\r\nID                             : 2\r\nFormat                         : DTS\r\nFormat/Info                    : Digital Theater Systems\r\nMode                           : 16\r\nFormat settings, Endianness    : Big\r\nCodec ID                       : A_DTS\r\nDuration                       : 1h 39mn\r\nBit rate mode                  : Constant\r\nBit rate                       : 1 509 Kbps\r\nChannel(s)                     : 6 channels\r\nChannel positions              : Front: L C R, Side: L R, LFE\r\nSampling rate                  : 48.0 KHz\r\nFrame rate                     : 93.750 fps (512 spf)\r\nBit depth                      : 24 bits\r\nCompression mode               : Lossy\r\nStream size                    : 1.05 GiB (11%)\r\nLanguage                       : English\r\nDefault                        : Yes\r\nForced                         : No\r\nDURATION                       : 01:39:19.999000000\r\n\r\nText\r\nID                             : 3\r\nFormat                         : UTF-8\r\nCodec ID                       : S_TEXT/UTF8\r\nCodec ID/Info                  : UTF-8 Plain Text\r\nLanguage                       : English\r\nDefault                        : No\r\nForced                         : No\r\nDURATION                       : 01:34:58.321000000\r\n\r\nMenu\r\n00:00:00.000                   : :00:00:00.000\r\n00:11:30.231                   : :00:11:30.231\r\n00:13:33.146                   : :00:13:33.146\r\n00:22:00.110                   : :00:22:00.110\r\n00:27:03.747                   : :00:27:03.747\r\n00:33:40.894                   : :00:33:40.894\r\n00:44:14.443                   : :00:44:14.443\r\n00:54:51.788                   : :00:54:51.788\r\n01:02:57.065                   : :01:02:57.065\r\n01:13:40.499                   : :01:13:40.499\r\n01:22:05.295                   : :01:22:05.295\r\n01:29:31.241                   : :01:29:31.241\r\n\r\n\r\nEnjoy and seed, please, as long as you can.\r\n\r\nTy and best regards","torrent":{"xt":"urn:btih:f9afd6f0e429e1811052c46b7ca3d09d27e5b7b9","amp;dn":"Shaft.%282000%29.h263.1080p%5B%29%28%5DDts-5.1-%28US%29.mkv","amp;tr":["udp%3A%2F%2Ftracker.leechers-paradise.org%3A6969","udp%3A%2F%2Fzer0day.ch%3A1337","udp%3A%2F%2Fopen.demonii.com%3A1337","udp%3A%2F%2Ftracker.coppersurfer.tk%3A6969","udp%3A%2F%2Fexodus.desync.com%3A6969"],"infoHash":"f9afd6f0e429e1811052c46b7ca3d09d27e5b7b9","infoHashBuffer":{"type":"Buffer","data":[249,175,214,240,228,41,225,129,16,82,196,107,124,163,208,157,39,229,183,185]},"announce":[],"urlList":[]}}